<mxfile host="app.diagrams.net" modified="2024-06-15T21:51:55.605Z" agent="Mozilla/5.0 (X11; Linux x86_64) AppleWebKit/537.36 (KHTML, like Gecko) Chrome/125.0.0.0 Safari/537.36" etag="SVHhlANV8oS50sjA3XT3" version="24.5.4" type="device">
  <diagram name="第 1 页" id="ztYxtRsQfPeP5I2pO8FB">
    <mxGraphModel dx="945" dy="547" grid="1" gridSize="10" guides="1" tooltips="1" connect="1" arrows="1" fold="1" page="1" pageScale="1" pageWidth="827" pageHeight="1169" math="0" shadow="0">
      <root>
        <mxCell id="0" />
        <mxCell id="1" parent="0" />
        <mxCell id="LdSCU7jo_EDFc6S9GLo3-7" style="edgeStyle=orthogonalEdgeStyle;rounded=0;orthogonalLoop=1;jettySize=auto;html=1;exitX=1;exitY=0.5;exitDx=0;exitDy=0;entryX=0;entryY=0.5;entryDx=0;entryDy=0;" parent="1" source="LdSCU7jo_EDFc6S9GLo3-1" target="LdSCU7jo_EDFc6S9GLo3-4" edge="1">
          <mxGeometry relative="1" as="geometry" />
        </mxCell>
        <mxCell id="LdSCU7jo_EDFc6S9GLo3-8" style="edgeStyle=orthogonalEdgeStyle;rounded=0;orthogonalLoop=1;jettySize=auto;html=1;" parent="1" source="LdSCU7jo_EDFc6S9GLo3-1" target="LdSCU7jo_EDFc6S9GLo3-5" edge="1">
          <mxGeometry relative="1" as="geometry" />
        </mxCell>
        <mxCell id="LdSCU7jo_EDFc6S9GLo3-1" value="創建任務node" style="rounded=1;whiteSpace=wrap;html=1;absoluteArcSize=1;arcSize=14;strokeWidth=2;" parent="1" vertex="1">
          <mxGeometry x="7" y="140" width="80" height="40" as="geometry" />
        </mxCell>
        <mxCell id="LdSCU7jo_EDFc6S9GLo3-23" style="edgeStyle=orthogonalEdgeStyle;rounded=0;orthogonalLoop=1;jettySize=auto;html=1;entryX=0;entryY=0.5;entryDx=0;entryDy=0;" parent="1" source="LdSCU7jo_EDFc6S9GLo3-4" target="LdSCU7jo_EDFc6S9GLo3-18" edge="1">
          <mxGeometry relative="1" as="geometry" />
        </mxCell>
        <mxCell id="LdSCU7jo_EDFc6S9GLo3-4" value="定義Subscriber並訂閱：&lt;div&gt;mavros/imu/data（IMU資訊）&lt;/div&gt;&lt;div&gt;mavros/local_position/pose（位置資訊）&lt;/div&gt;&lt;div&gt;camera_down/tag_detection（相機資訊）&lt;/div&gt;&lt;div&gt;camera_down/tag_detection（相機資訊）&lt;/div&gt;" style="rounded=1;whiteSpace=wrap;html=1;absoluteArcSize=1;arcSize=14;strokeWidth=2;" parent="1" vertex="1">
          <mxGeometry x="127" y="60" width="230" height="88" as="geometry" />
        </mxCell>
        <mxCell id="LdSCU7jo_EDFc6S9GLo3-24" style="edgeStyle=orthogonalEdgeStyle;rounded=0;orthogonalLoop=1;jettySize=auto;html=1;entryX=0;entryY=0.5;entryDx=0;entryDy=0;" parent="1" source="LdSCU7jo_EDFc6S9GLo3-5" target="LdSCU7jo_EDFc6S9GLo3-18" edge="1">
          <mxGeometry relative="1" as="geometry">
            <mxPoint x="407" y="160.0000000000001" as="targetPoint" />
          </mxGeometry>
        </mxCell>
        <mxCell id="LdSCU7jo_EDFc6S9GLo3-5" value="定義Publisher用於發布：&lt;div&gt;ukf/positoin（UKF）&lt;/div&gt;&lt;div&gt;local/position（GPS位置）&lt;/div&gt;" style="rounded=1;whiteSpace=wrap;html=1;absoluteArcSize=1;arcSize=14;strokeWidth=2;" parent="1" vertex="1">
          <mxGeometry x="127" y="170" width="230" height="60" as="geometry" />
        </mxCell>
        <mxCell id="DnJmR9j1Yxy9dODjmxc5-2" value="" style="edgeStyle=orthogonalEdgeStyle;rounded=0;orthogonalLoop=1;jettySize=auto;html=1;" edge="1" parent="1" source="LdSCU7jo_EDFc6S9GLo3-18" target="DnJmR9j1Yxy9dODjmxc5-1">
          <mxGeometry relative="1" as="geometry" />
        </mxCell>
        <mxCell id="DnJmR9j1Yxy9dODjmxc5-5" style="edgeStyle=orthogonalEdgeStyle;rounded=0;orthogonalLoop=1;jettySize=auto;html=1;exitX=0.5;exitY=1;exitDx=0;exitDy=0;entryX=0;entryY=0.5;entryDx=0;entryDy=0;" edge="1" parent="1" source="LdSCU7jo_EDFc6S9GLo3-18" target="DnJmR9j1Yxy9dODjmxc5-3">
          <mxGeometry relative="1" as="geometry" />
        </mxCell>
        <mxCell id="DnJmR9j1Yxy9dODjmxc5-7" style="edgeStyle=orthogonalEdgeStyle;rounded=0;orthogonalLoop=1;jettySize=auto;html=1;entryX=0;entryY=0.5;entryDx=0;entryDy=0;exitX=0.5;exitY=0;exitDx=0;exitDy=0;" edge="1" parent="1" source="LdSCU7jo_EDFc6S9GLo3-18" target="DnJmR9j1Yxy9dODjmxc5-6">
          <mxGeometry relative="1" as="geometry" />
        </mxCell>
        <mxCell id="DnJmR9j1Yxy9dODjmxc5-18" style="edgeStyle=orthogonalEdgeStyle;rounded=0;orthogonalLoop=1;jettySize=auto;html=1;entryX=0;entryY=0.5;entryDx=0;entryDy=0;exitX=0.5;exitY=1;exitDx=0;exitDy=0;" edge="1" parent="1" source="LdSCU7jo_EDFc6S9GLo3-18" target="DnJmR9j1Yxy9dODjmxc5-16">
          <mxGeometry relative="1" as="geometry" />
        </mxCell>
        <mxCell id="LdSCU7jo_EDFc6S9GLo3-18" value="無人機控制&lt;div&gt;（方法與task1相同）&lt;/div&gt;" style="rounded=1;whiteSpace=wrap;html=1;absoluteArcSize=1;arcSize=14;strokeWidth=2;" parent="1" vertex="1">
          <mxGeometry x="399" y="130" width="110" height="60" as="geometry" />
        </mxCell>
        <mxCell id="DnJmR9j1Yxy9dODjmxc5-10" value="" style="edgeStyle=orthogonalEdgeStyle;rounded=0;orthogonalLoop=1;jettySize=auto;html=1;" edge="1" parent="1" source="DnJmR9j1Yxy9dODjmxc5-1" target="DnJmR9j1Yxy9dODjmxc5-8">
          <mxGeometry relative="1" as="geometry" />
        </mxCell>
        <mxCell id="DnJmR9j1Yxy9dODjmxc5-1" value="初始化UKF參數" style="rounded=1;whiteSpace=wrap;html=1;absoluteArcSize=1;arcSize=14;strokeWidth=2;" vertex="1" parent="1">
          <mxGeometry x="529" y="130" width="130" height="60" as="geometry" />
        </mxCell>
        <mxCell id="DnJmR9j1Yxy9dODjmxc5-11" style="edgeStyle=orthogonalEdgeStyle;rounded=0;orthogonalLoop=1;jettySize=auto;html=1;entryX=0;entryY=0.5;entryDx=0;entryDy=0;" edge="1" parent="1" source="DnJmR9j1Yxy9dODjmxc5-3" target="DnJmR9j1Yxy9dODjmxc5-8">
          <mxGeometry relative="1" as="geometry" />
        </mxCell>
        <mxCell id="DnJmR9j1Yxy9dODjmxc5-3" value="獲取IMU觀&lt;span style=&quot;color: rgba(0, 0, 0, 0); font-family: monospace; font-size: 0px; text-align: start; text-wrap: nowrap;&quot;&gt;%3CmxGraphModel%3E%3Croot%3E%3CmxCell%20id%3D%220%22%2F%3E%3CmxCell%20id%3D%221%22%20parent%3D%220%22%2F%3E%3CmxCell%20id%3D%222%22%20value%3D%22%E7%84%A1%E4%BA%BA%E6%A9%9F%E6%8E%A7%E5%88%B6%EF%BC%88%E6%96%B9%E6%B3%95%E8%88%87task1%E7%9B%B8%E5%90%8C%EF%BC%89%22%20style%3D%22rounded%3D1%3BwhiteSpace%3Dwrap%3Bhtml%3D1%3BabsoluteArcSize%3D1%3BarcSize%3D14%3BstrokeWidth%3D2%3B%22%20vertex%3D%221%22%20parent%3D%221%22%3E%3CmxGeometry%20x%3D%22418%22%20y%3D%22130%22%20width%3D%22182%22%20height%3D%2260%22%20as%3D%22geometry%22%2F%3E%3C%2FmxCell%3E%3C%2Froot%3E%3C%2FmxGraphModel%3E&lt;/span&gt;測資訊" style="whiteSpace=wrap;html=1;rounded=1;arcSize=14;strokeWidth=2;" vertex="1" parent="1">
          <mxGeometry x="529" y="200" width="130" height="60" as="geometry" />
        </mxCell>
        <mxCell id="DnJmR9j1Yxy9dODjmxc5-9" style="edgeStyle=orthogonalEdgeStyle;rounded=0;orthogonalLoop=1;jettySize=auto;html=1;exitX=1;exitY=0.5;exitDx=0;exitDy=0;entryX=0;entryY=0.5;entryDx=0;entryDy=0;" edge="1" parent="1" source="DnJmR9j1Yxy9dODjmxc5-6" target="DnJmR9j1Yxy9dODjmxc5-8">
          <mxGeometry relative="1" as="geometry" />
        </mxCell>
        <mxCell id="DnJmR9j1Yxy9dODjmxc5-6" value="透過Apriltag計算位置" style="whiteSpace=wrap;html=1;rounded=1;arcSize=14;strokeWidth=2;" vertex="1" parent="1">
          <mxGeometry x="529" y="60" width="130" height="60" as="geometry" />
        </mxCell>
        <mxCell id="DnJmR9j1Yxy9dODjmxc5-14" style="edgeStyle=orthogonalEdgeStyle;rounded=0;orthogonalLoop=1;jettySize=auto;html=1;entryX=0.5;entryY=0;entryDx=0;entryDy=0;exitX=0.5;exitY=1;exitDx=0;exitDy=0;" edge="1" parent="1" source="DnJmR9j1Yxy9dODjmxc5-8" target="DnJmR9j1Yxy9dODjmxc5-13">
          <mxGeometry relative="1" as="geometry" />
        </mxCell>
        <mxCell id="DnJmR9j1Yxy9dODjmxc5-8" value="UKF" style="rounded=1;whiteSpace=wrap;html=1;absoluteArcSize=1;arcSize=14;strokeWidth=2;" vertex="1" parent="1">
          <mxGeometry x="699" y="130" width="120" height="60" as="geometry" />
        </mxCell>
        <mxCell id="DnJmR9j1Yxy9dODjmxc5-13" value="data_saver儲存資料" style="rounded=1;whiteSpace=wrap;html=1;absoluteArcSize=1;arcSize=14;strokeWidth=2;" vertex="1" parent="1">
          <mxGeometry x="699" y="270" width="120" height="60" as="geometry" />
        </mxCell>
        <mxCell id="DnJmR9j1Yxy9dODjmxc5-17" style="edgeStyle=orthogonalEdgeStyle;rounded=0;orthogonalLoop=1;jettySize=auto;html=1;" edge="1" parent="1" source="DnJmR9j1Yxy9dODjmxc5-16" target="DnJmR9j1Yxy9dODjmxc5-13">
          <mxGeometry relative="1" as="geometry" />
        </mxCell>
        <mxCell id="DnJmR9j1Yxy9dODjmxc5-16" value="真實GPS位置" style="whiteSpace=wrap;html=1;rounded=1;arcSize=14;strokeWidth=2;" vertex="1" parent="1">
          <mxGeometry x="529" y="270" width="130" height="60" as="geometry" />
        </mxCell>
      </root>
    </mxGraphModel>
  </diagram>
</mxfile>
